<?xml version="1.0" standalone="no"?>
<!DOCTYPE svg PUBLIC "-//W3C//DTD SVG 20010904//EN"
 "http://www.w3.org/TR/2001/REC-SVG-20010904/DTD/svg10.dtd">
<svg version="1.0" xmlns="http://www.w3.org/2000/svg"
 width="700.000000pt" height="700.000000pt" viewBox="0 0 700.000000 700.000000"
 preserveAspectRatio="xMidYMid meet">
<metadata>
Created by potrace 1.11, written by Peter Selinger 2001-2013
</metadata>
<g transform="translate(0.000000,700.000000) scale(0.100000,-0.100000)"
fill="#000000" stroke="none">
<path d="M3408 6865 c-2 -2 -63 -6 -137 -9 -74 -4 -137 -9 -140 -10 -3 -2 -37
-7 -76 -11 -38 -4 -72 -8 -75 -10 -3 -2 -26 -6 -50 -10 -337 -46 -818 -223
-1147 -421 -85 -51 -276 -179 -296 -197 -7 -7 -41 -34 -77 -61 -74 -57 -95
-75 -204 -177 -418 -392 -728 -875 -903 -1409 -32 -98 -90 -314 -99 -370 -3
-14 -11 -61 -19 -105 -13 -72 -21 -127 -30 -205 -27 -222 -21 -692 10 -810 2
-8 7 -42 11 -75 3 -33 8 -67 9 -75 36 -166 47 -218 65 -285 31 -115 67 -226
112 -340 50 -128 109 -255 118 -255 4 0 11 21 14 48 9 56 12 71 31 177 8 44
17 98 20 120 4 22 8 47 10 55 3 8 7 33 10 55 3 22 12 74 20 115 8 41 22 118
30 170 16 94 20 117 30 175 3 17 12 66 20 110 8 44 17 98 20 120 4 22 8 47 10
55 3 8 7 33 10 55 4 22 8 47 10 55 2 8 6 29 9 45 8 47 89 515 101 585 26 141
56 313 60 345 4 22 8 47 10 55 3 8 7 33 10 55 4 22 15 86 25 142 11 56 22 122
25 145 3 24 7 50 10 58 2 8 18 96 35 195 17 99 33 191 35 205 3 14 22 121 42
238 l37 212 730 -1 c402 -1 754 -5 781 -9 28 -5 68 -11 90 -15 22 -3 54 -10
71 -16 17 -5 40 -11 50 -13 40 -8 171 -59 229 -89 371 -191 619 -514 701 -912
20 -98 26 -363 11 -485 -13 -102 -75 -344 -116 -454 -197 -525 -566 -840
-1111 -950 -174 -35 -189 -36 -520 -42 -162 -3 -300 -7 -307 -9 -6 -2 -15 -25
-19 -52 -3 -26 -8 -57 -10 -68 -2 -11 -7 -33 -10 -50 -3 -16 -14 -79 -25 -140
-11 -60 -22 -126 -25 -145 -2 -19 -6 -44 -9 -55 -2 -11 -16 -87 -30 -170 -33
-192 -32 -184 -40 -227 l-7 -38 -434 0 c-239 0 -434 -3 -434 -6 0 -19 211
-299 302 -401 113 -126 319 -321 423 -400 6 -5 30 -24 55 -44 115 -91 313
-217 483 -308 271 -145 667 -281 947 -326 19 -3 60 -10 90 -15 103 -17 195
-28 315 -35 87 -6 374 -6 435 0 25 2 75 7 112 10 37 3 77 8 90 10 13 2 46 7
73 11 28 4 52 8 55 9 3 0 28 5 55 9 28 4 88 17 135 28 47 11 92 21 100 23 8 2
67 19 130 38 1100 336 1949 1204 2263 2312 27 94 42 156 52 215 3 19 8 42 10
50 2 8 7 31 10 50 3 19 7 46 10 60 3 14 7 45 10 70 3 25 7 56 10 69 32 165 20
701 -19 907 -3 12 -7 39 -11 60 -11 75 -16 95 -44 211 -41 167 -86 307 -148
463 -55 139 -182 400 -194 400 -4 0 -47 -46 -95 -102 -49 -57 -93 -108 -99
-114 -5 -6 -30 -35 -55 -64 -25 -29 -50 -58 -55 -64 -6 -6 -64 -74 -130 -151
-66 -77 -125 -144 -131 -150 -6 -5 -37 -41 -70 -80 -32 -38 -67 -78 -76 -89
-10 -11 -18 -23 -18 -27 0 -4 26 -13 58 -19 126 -24 349 -115 444 -182 275
-191 434 -458 483 -808 14 -105 6 -304 -19 -445 -28 -152 -93 -343 -164 -475
-138 -259 -342 -459 -598 -588 -79 -39 -260 -107 -313 -117 -25 -5 -42 -8
-101 -20 -111 -22 -211 -29 -374 -27 -82 1 -163 3 -180 6 -17 3 -53 8 -81 11
-27 3 -87 15 -131 26 -45 11 -90 21 -100 24 -11 2 -50 15 -87 29 -410 156
-666 466 -753 911 -19 97 -26 406 -11 520 27 210 118 448 253 656 49 77 244
320 398 497 34 39 402 475 526 622 58 69 114 136 126 150 95 111 229 268 331
390 l122 146 278 -1 c153 0 284 1 290 3 17 5 -59 97 -195 236 -376 383 -841
675 -1335 837 -121 40 -405 112 -482 123 -22 3 -49 7 -60 10 -12 2 -48 7 -80
11 -33 4 -71 8 -85 11 -58 9 -445 25 -452 19z"/>
<path d="M2056 4568 c-4 -19 -25 -138 -42 -233 -19 -113 -71 -409 -89 -510 -8
-44 -17 -97 -21 -119 l-6 -39 184 6 c252 9 336 36 442 142 57 56 119 169 131
234 3 19 9 39 12 44 4 6 8 50 9 97 6 168 -47 276 -169 347 -64 38 -137 51
-297 52 -148 2 -149 2 -154 -21z"/>
<path d="M5199 3365 c-240 -48 -383 -295 -295 -507 24 -56 99 -131 162 -162
48 -24 71 -29 139 -29 71 -1 89 3 150 32 143 66 223 192 223 352 0 208 -177
355 -379 314z"/>
</g>
</svg>
